<mxfile host="app.diagrams.net" agent="Mozilla/5.0 (Windows NT 10.0; Win64; x64) AppleWebKit/537.36 (KHTML, like Gecko) Chrome/128.0.0.0 Safari/537.36" version="24.7.8">
  <diagram id="R2lEEEUBdFMjLlhIrx00" name="Page-1">
    <mxGraphModel dx="1688" dy="876" grid="1" gridSize="10" guides="1" tooltips="1" connect="1" arrows="1" fold="1" page="1" pageScale="1" pageWidth="850" pageHeight="1100" math="0" shadow="0" extFonts="Permanent Marker^https://fonts.googleapis.com/css?family=Permanent+Marker">
      <root>
        <mxCell id="0" />
        <mxCell id="1" parent="0" />
        <mxCell id="qjcV2F8L71q0vEXfeqgy-24" style="edgeStyle=orthogonalEdgeStyle;rounded=0;orthogonalLoop=1;jettySize=auto;html=1;exitX=1;exitY=0.5;exitDx=0;exitDy=0;entryX=0;entryY=0.5;entryDx=0;entryDy=0;startArrow=classic;startFill=1;endArrow=none;endFill=0;" edge="1" parent="1" source="qjcV2F8L71q0vEXfeqgy-1" target="qjcV2F8L71q0vEXfeqgy-23">
          <mxGeometry relative="1" as="geometry" />
        </mxCell>
        <mxCell id="qjcV2F8L71q0vEXfeqgy-27" value="(1,1)" style="edgeLabel;html=1;align=center;verticalAlign=middle;resizable=0;points=[];" vertex="1" connectable="0" parent="qjcV2F8L71q0vEXfeqgy-24">
          <mxGeometry x="0.0653" y="1" relative="1" as="geometry">
            <mxPoint as="offset" />
          </mxGeometry>
        </mxCell>
        <mxCell id="qjcV2F8L71q0vEXfeqgy-1" value="Empregado" style="whiteSpace=wrap;html=1;align=center;" vertex="1" parent="1">
          <mxGeometry x="20" y="40" width="100" height="40" as="geometry" />
        </mxCell>
        <mxCell id="qjcV2F8L71q0vEXfeqgy-2" value="int" style="ellipse;whiteSpace=wrap;html=1;align=center;" vertex="1" parent="1">
          <mxGeometry x="20" y="120" width="60" height="20" as="geometry" />
        </mxCell>
        <mxCell id="qjcV2F8L71q0vEXfeqgy-3" value="COD" style="ellipse;whiteSpace=wrap;html=1;align=center;fontStyle=4;" vertex="1" parent="1">
          <mxGeometry x="130" y="10" width="60" height="20" as="geometry" />
        </mxCell>
        <mxCell id="qjcV2F8L71q0vEXfeqgy-4" value="" style="endArrow=none;html=1;rounded=0;entryX=0.25;entryY=1;entryDx=0;entryDy=0;exitX=0.5;exitY=0;exitDx=0;exitDy=0;" edge="1" parent="1" source="qjcV2F8L71q0vEXfeqgy-2" target="qjcV2F8L71q0vEXfeqgy-1">
          <mxGeometry relative="1" as="geometry">
            <mxPoint x="50" y="120" as="sourcePoint" />
            <mxPoint x="210" y="120" as="targetPoint" />
          </mxGeometry>
        </mxCell>
        <mxCell id="qjcV2F8L71q0vEXfeqgy-5" value="" style="resizable=0;html=1;whiteSpace=wrap;align=right;verticalAlign=bottom;" connectable="0" vertex="1" parent="qjcV2F8L71q0vEXfeqgy-4">
          <mxGeometry x="1" relative="1" as="geometry">
            <mxPoint x="-170" y="-40" as="offset" />
          </mxGeometry>
        </mxCell>
        <mxCell id="qjcV2F8L71q0vEXfeqgy-6" value="" style="endArrow=none;html=1;rounded=0;entryX=1;entryY=0.25;entryDx=0;entryDy=0;exitX=0.5;exitY=1;exitDx=0;exitDy=0;" edge="1" parent="1" source="qjcV2F8L71q0vEXfeqgy-3" target="qjcV2F8L71q0vEXfeqgy-1">
          <mxGeometry relative="1" as="geometry">
            <mxPoint x="60" y="130" as="sourcePoint" />
            <mxPoint x="55" y="90" as="targetPoint" />
            <Array as="points">
              <mxPoint x="120" y="50" />
            </Array>
          </mxGeometry>
        </mxCell>
        <mxCell id="qjcV2F8L71q0vEXfeqgy-7" value="" style="resizable=0;html=1;whiteSpace=wrap;align=right;verticalAlign=bottom;" connectable="0" vertex="1" parent="qjcV2F8L71q0vEXfeqgy-6">
          <mxGeometry x="1" relative="1" as="geometry">
            <mxPoint x="-170" y="-40" as="offset" />
          </mxGeometry>
        </mxCell>
        <mxCell id="qjcV2F8L71q0vEXfeqgy-18" style="rounded=0;orthogonalLoop=1;jettySize=auto;html=1;exitX=1;exitY=0.25;exitDx=0;exitDy=0;entryX=0;entryY=0.5;entryDx=0;entryDy=0;strokeColor=default;edgeStyle=orthogonalEdgeStyle;curved=0;endArrow=none;endFill=0;" edge="1" parent="1" source="qjcV2F8L71q0vEXfeqgy-8" target="qjcV2F8L71q0vEXfeqgy-14">
          <mxGeometry relative="1" as="geometry" />
        </mxCell>
        <mxCell id="qjcV2F8L71q0vEXfeqgy-19" style="rounded=0;orthogonalLoop=1;jettySize=auto;html=1;exitX=1;exitY=0.5;exitDx=0;exitDy=0;entryX=0;entryY=0.5;entryDx=0;entryDy=0;strokeColor=default;edgeStyle=orthogonalEdgeStyle;curved=0;endArrow=none;endFill=0;" edge="1" parent="1" source="qjcV2F8L71q0vEXfeqgy-8" target="qjcV2F8L71q0vEXfeqgy-15">
          <mxGeometry relative="1" as="geometry" />
        </mxCell>
        <mxCell id="qjcV2F8L71q0vEXfeqgy-20" style="rounded=0;orthogonalLoop=1;jettySize=auto;html=1;exitX=1;exitY=0.75;exitDx=0;exitDy=0;entryX=0;entryY=0.5;entryDx=0;entryDy=0;strokeColor=default;edgeStyle=orthogonalEdgeStyle;curved=0;endArrow=none;endFill=0;" edge="1" parent="1" source="qjcV2F8L71q0vEXfeqgy-8" target="qjcV2F8L71q0vEXfeqgy-16">
          <mxGeometry relative="1" as="geometry" />
        </mxCell>
        <mxCell id="qjcV2F8L71q0vEXfeqgy-21" style="rounded=0;orthogonalLoop=1;jettySize=auto;html=1;exitX=1;exitY=1;exitDx=0;exitDy=0;entryX=0;entryY=0.5;entryDx=0;entryDy=0;strokeColor=default;edgeStyle=orthogonalEdgeStyle;curved=0;endArrow=none;endFill=0;" edge="1" parent="1" source="qjcV2F8L71q0vEXfeqgy-8" target="qjcV2F8L71q0vEXfeqgy-17">
          <mxGeometry relative="1" as="geometry" />
        </mxCell>
        <mxCell id="qjcV2F8L71q0vEXfeqgy-25" style="edgeStyle=orthogonalEdgeStyle;rounded=0;orthogonalLoop=1;jettySize=auto;html=1;entryX=1;entryY=0.5;entryDx=0;entryDy=0;startArrow=none;startFill=0;endArrow=none;endFill=0;" edge="1" parent="1" source="qjcV2F8L71q0vEXfeqgy-8" target="qjcV2F8L71q0vEXfeqgy-23">
          <mxGeometry relative="1" as="geometry" />
        </mxCell>
        <mxCell id="qjcV2F8L71q0vEXfeqgy-28" value="(0,n)" style="edgeLabel;html=1;align=center;verticalAlign=middle;resizable=0;points=[];" vertex="1" connectable="0" parent="qjcV2F8L71q0vEXfeqgy-25">
          <mxGeometry x="0.2085" y="-1" relative="1" as="geometry">
            <mxPoint as="offset" />
          </mxGeometry>
        </mxCell>
        <mxCell id="qjcV2F8L71q0vEXfeqgy-8" value="DEPENDENTE" style="whiteSpace=wrap;html=1;align=center;" vertex="1" parent="1">
          <mxGeometry x="354" y="40" width="100" height="40" as="geometry" />
        </mxCell>
        <mxCell id="qjcV2F8L71q0vEXfeqgy-9" value="num_seq" style="ellipse;whiteSpace=wrap;html=1;align=center;" vertex="1" parent="1">
          <mxGeometry x="310" y="140" width="60" height="20" as="geometry" />
        </mxCell>
        <mxCell id="qjcV2F8L71q0vEXfeqgy-12" value="int&lt;div&gt;&lt;br&gt;&lt;/div&gt;" style="text;strokeColor=none;fillColor=none;spacingLeft=4;spacingRight=4;overflow=hidden;rotatable=0;points=[[0,0.5],[1,0.5]];portConstraint=eastwest;fontSize=12;whiteSpace=wrap;html=1;" vertex="1" parent="1">
          <mxGeometry x="320" y="160" width="40" height="30" as="geometry" />
        </mxCell>
        <mxCell id="qjcV2F8L71q0vEXfeqgy-13" value="nome" style="ellipse;whiteSpace=wrap;html=1;align=center;" vertex="1" parent="1">
          <mxGeometry x="380" y="140" width="60" height="20" as="geometry" />
        </mxCell>
        <mxCell id="qjcV2F8L71q0vEXfeqgy-14" value="EMP_via" style="ellipse;whiteSpace=wrap;html=1;align=center;fontStyle=4;" vertex="1" parent="1">
          <mxGeometry x="510" y="20" width="60" height="20" as="geometry" />
        </mxCell>
        <mxCell id="qjcV2F8L71q0vEXfeqgy-15" value="EMP_DP" style="ellipse;whiteSpace=wrap;html=1;align=center;fontStyle=4;" vertex="1" parent="1">
          <mxGeometry x="510" y="50" width="60" height="20" as="geometry" />
        </mxCell>
        <mxCell id="qjcV2F8L71q0vEXfeqgy-16" value="EMP_DP" style="ellipse;whiteSpace=wrap;html=1;align=center;fontStyle=4;" vertex="1" parent="1">
          <mxGeometry x="510" y="80" width="60" height="20" as="geometry" />
        </mxCell>
        <mxCell id="qjcV2F8L71q0vEXfeqgy-17" value="N_SEQ" style="ellipse;whiteSpace=wrap;html=1;align=center;fontStyle=4;" vertex="1" parent="1">
          <mxGeometry x="510" y="120" width="60" height="20" as="geometry" />
        </mxCell>
        <mxCell id="qjcV2F8L71q0vEXfeqgy-23" value="EMP_DEP" style="shape=rhombus;perimeter=rhombusPerimeter;whiteSpace=wrap;html=1;align=center;" vertex="1" parent="1">
          <mxGeometry x="190" y="40" width="90" height="40" as="geometry" />
        </mxCell>
        <mxCell id="qjcV2F8L71q0vEXfeqgy-29" value="EX_pag64" style="text;strokeColor=none;fillColor=none;spacingLeft=4;spacingRight=4;overflow=hidden;rotatable=0;points=[[0,0.5],[1,0.5]];portConstraint=eastwest;fontSize=12;whiteSpace=wrap;html=1;" vertex="1" parent="1">
          <mxGeometry x="-90" y="50" width="70" height="30" as="geometry" />
        </mxCell>
        <mxCell id="qjcV2F8L71q0vEXfeqgy-31" value="EX_dia28" style="text;strokeColor=none;fillColor=none;spacingLeft=4;spacingRight=4;overflow=hidden;rotatable=0;points=[[0,0.5],[1,0.5]];portConstraint=eastwest;fontSize=12;whiteSpace=wrap;html=1;" vertex="1" parent="1">
          <mxGeometry x="-100" y="230" width="70" height="30" as="geometry" />
        </mxCell>
      </root>
    </mxGraphModel>
  </diagram>
</mxfile>
